<?xml version="1.0" standalone="no"?>
<!DOCTYPE svg PUBLIC "-//W3C//DTD SVG 20010904//EN"
 "http://www.w3.org/TR/2001/REC-SVG-20010904/DTD/svg10.dtd">
<svg version="1.0" xmlns="http://www.w3.org/2000/svg"
 width="527.000000pt" height="473.000000pt" viewBox="0 0 527.000000 473.000000"
 preserveAspectRatio="xMidYMid meet">

<g transform="translate(0.000000,473.000000) scale(0.100000,-0.100000)"
fill="#000000" stroke="none">
<path d="M2530 4291 c-117 -38 -206 -137 -225 -248 l-7 -43 -554 0 -554 0 0
-945 0 -945 1448 2 1447 3 3 818 2 817 -565 1 c-311 1 -571 2 -577 3 -9 1 -13
21 -13 66 l0 65 578 3 578 2 -3 53 -3 52 -576 3 -576 2 -6 40 c-12 91 -85 188
-176 232 -49 24 -173 35 -221 19z m168 -116 c20 -9 47 -26 60 -38 29 -27 62
-89 62 -117 0 -19 -5 -20 -206 -20 l-206 0 6 33 c23 118 167 190 284 142z
m-398 -355 l0 -70 -130 0 -130 0 0 -55 0 -55 -75 0 -75 0 0 55 0 55 -227 0
-228 0 2 -692 2 -693 1208 0 1208 0 3 543 2 542 -60 0 -61 0 3 98 3 97 115 0
115 0 0 -710 0 -710 -1330 -3 c-731 -1 -1334 0 -1340 2 -7 2 -9 287 -7 835 l2
831 500 0 500 0 0 -70z m520 0 l0 -70 -202 2 -203 3 -3 54 c-2 29 -1 60 2 67
4 11 45 14 206 14 l200 0 0 -70z m-520 -255 l0 -75 55 0 55 0 0 75 0 75 205 0
205 0 0 -80 0 -80 60 0 60 0 0 80 0 80 80 0 80 0 0 -460 0 -460 -470 0 -470 0
0 460 0 460 70 0 70 0 0 -75z"/>
<path d="M1102 1663 c-45 -109 -102 -247 -127 -307 -25 -59 -45 -112 -45 -117
0 -5 718 -9 1705 -9 1117 0 1705 3 1705 10 0 9 -53 142 -90 225 -10 22 -50
120 -90 218 l-72 177 -1452 0 -1453 0 -81 -197z m2904 89 c13 -9 173 -395 167
-404 -5 -9 -3067 -11 -3076 -2 -3 3 10 43 30 87 19 45 53 127 75 182 22 55 46
110 54 122 l14 22 1363 0 c750 0 1368 -4 1373 -7z"/>
<path d="M2410 1550 l0 -60 245 0 245 0 0 60 0 60 -245 0 -245 0 0 -60z"/>
<path d="M430 965 c-90 -41 -132 -127 -108 -222 32 -127 203 -174 293 -81 l30
31 -38 -28 c-51 -38 -119 -44 -165 -15 -87 54 -95 210 -15 280 62 55 167 34
194 -38 14 -36 20 -22 13 29 -5 39 -9 44 -33 45 -14 1 -51 5 -81 8 -40 5 -65
2 -90 -9z"/>
<path d="M1317 966 c-50 -18 -72 -39 -97 -90 -76 -157 78 -319 235 -247 40 18
87 61 68 61 -5 0 -18 -9 -28 -20 -10 -11 -35 -25 -56 -31 -99 -30 -179 40
-179 156 0 99 52 165 130 165 60 0 97 -25 122 -80 4 -8 7 8 7 36 1 50 1 51
-31 51 -18 0 -55 3 -83 7 -33 4 -63 2 -88 -8z"/>
<path d="M3976 806 c-56 -117 -90 -176 -102 -179 -11 -3 8 -5 41 -5 45 -1 54
1 38 8 -13 5 -23 14 -23 20 0 15 31 74 42 81 10 7 146 5 152 -2 2 -2 11 -20
19 -40 15 -38 12 -52 -13 -62 -8 -3 19 -5 60 -6 50 0 68 3 54 9 -14 5 -45 61
-99 179 -43 94 -79 171 -81 171 -2 0 -42 -78 -88 -174z m97 42 c47 -102 48
-98 -27 -98 -36 0 -66 4 -66 9 0 11 60 141 66 141 2 0 14 -24 27 -52z"/>
<path d="M690 957 c25 -13 25 -13 25 -162 0 -149 0 -149 -25 -162 -21 -11 -3
-13 121 -13 147 0 147 0 153 24 3 13 9 32 12 41 4 9 -7 2 -24 -15 -30 -30 -34
-31 -104 -28 l-73 3 -3 130 c-3 150 0 173 31 185 16 6 -1 9 -58 9 -71 1 -77
-1 -55 -12z"/>
<path d="M1023 958 l27 -10 -2 -156 -3 -156 -25 -7 c-15 -4 7 -7 55 -7 57 -1
74 2 58 8 -22 9 -23 13 -23 164 l0 154 28 10 c22 8 11 10 -58 10 -69 0 -80 -1
-57 -10z"/>
<path d="M1573 958 c15 -5 28 -17 28 -26 4 -61 4 -224 -1 -257 -4 -31 -10 -41
-30 -46 -15 -4 7 -7 55 -7 57 -1 74 2 58 8 -21 9 -23 16 -23 87 l0 77 70 -69
c72 -72 82 -90 53 -98 -10 -3 20 -5 67 -5 61 -1 78 2 62 8 -23 10 -192 174
-192 188 0 17 128 133 156 142 23 7 15 8 -41 9 -52 0 -66 -2 -52 -10 9 -5 17
-14 17 -18 0 -8 -127 -141 -135 -141 -3 0 -5 33 -5 74 0 72 1 75 28 84 22 8
11 10 -58 10 -69 0 -80 -2 -57 -10z"/>
<path d="M2201 888 c-97 -207 -113 -238 -134 -253 -20 -14 -18 -15 38 -14 46
0 55 2 38 9 -28 11 -29 35 -5 75 17 28 22 29 88 31 38 0 74 -3 81 -8 7 -5 17
-26 24 -45 10 -32 9 -38 -7 -50 -15 -11 -9 -13 50 -13 66 0 68 1 47 18 -15 12
-161 311 -161 329 0 2 -5 3 -10 3 -6 0 -28 -37 -49 -82z m89 -120 c0 -15 -10
-18 -65 -18 -36 0 -65 2 -65 5 0 3 16 38 37 78 l36 72 28 -60 c15 -33 28 -68
29 -77z"/>
<path d="M2465 958 c41 -22 45 -38 45 -168 0 -132 -6 -154 -45 -163 -11 -3 12
-5 50 -5 43 0 60 3 45 7 -25 7 -25 8 -28 136 l-3 129 23 -22 c13 -11 66 -73
118 -136 52 -63 98 -115 103 -116 4 0 7 74 7 164 l0 164 28 10 c22 9 15 10
-43 10 -38 0 -61 -2 -50 -5 37 -9 45 -32 45 -135 0 -54 -4 -98 -9 -98 -5 0
-54 54 -108 119 l-98 120 -50 0 c-42 0 -47 -1 -30 -11z"/>
<path d="M2870 958 l25 -14 0 -154 0 -154 -25 -8 c-14 -4 34 -6 107 -5 130 2
131 2 170 33 55 44 75 87 71 155 -5 66 -31 108 -85 135 -48 23 -307 35 -263
12z m238 -34 c27 -17 61 -86 62 -123 0 -45 -23 -102 -52 -126 -34 -29 -101
-49 -134 -41 -24 6 -24 7 -24 160 0 139 2 155 18 158 27 6 103 -10 130 -28z"/>
<path d="M3418 958 c21 -11 22 -15 22 -163 0 -148 -1 -152 -22 -163 -19 -9
-13 -11 37 -11 33 1 53 3 45 6 -34 12 -40 36 -40 155 0 72 4 118 10 118 6 0
10 -4 10 -9 0 -5 23 -58 51 -118 28 -59 55 -119 60 -132 6 -14 13 -20 18 -15
5 5 35 66 66 137 32 70 61 130 66 133 5 3 9 -48 9 -113 0 -120 -6 -144 -40
-156 -8 -3 19 -5 60 -6 55 0 69 3 53 9 -22 9 -23 13 -23 165 0 152 1 156 23
165 17 7 12 9 -27 7 -31 -1 -52 -7 -57 -17 -5 -8 -32 -66 -60 -127 -29 -62
-55 -113 -58 -113 -4 0 -19 26 -33 58 -14 31 -40 90 -59 130 l-33 72 -50 -1
c-44 0 -48 -2 -28 -11z"/>
<path d="M4300 957 c25 -13 25 -13 25 -162 0 -149 0 -149 -25 -162 -22 -11
-15 -13 60 -11 47 0 75 3 63 5 -35 7 -44 27 -41 90 3 53 5 58 26 58 15 0 41
-22 85 -75 58 -69 66 -75 105 -78 l42 -3 -53 53 c-29 29 -63 67 -75 84 l-22
32 31 12 c35 15 49 37 49 80 0 73 -36 90 -189 90 -92 0 -103 -2 -81 -13z m207
-33 c33 -45 5 -107 -57 -125 -62 -19 -70 -11 -70 75 0 70 1 75 23 78 35 6 90
-9 104 -28z"/>
<path d="M4616 948 c-3 -13 -5 -34 -5 -48 1 -24 1 -23 15 7 15 35 42 47 90 41
l29 -3 3 -130 c3 -150 0 -173 -31 -185 -16 -6 1 -9 58 -9 71 -1 77 1 55 12
-25 12 -25 14 -28 165 l-3 152 41 0 c51 0 80 -15 80 -40 0 -10 5 -22 10 -25 6
-4 10 6 10 24 0 62 2 61 -165 61 -150 0 -153 0 -159 -22z"/>
</g>
</svg>
